<?xml version="1.0" encoding="UTF-8"?>
<svg width="800" height="500" viewBox="0 0 800 500" xmlns="http://www.w3.org/2000/svg">
  <style>
    @keyframes drawLine {
      0% { stroke-dashoffset: 1000; }
      100% { stroke-dashoffset: 0; }
    }
    @keyframes fadeIn {
      0% { opacity: 0; }
      100% { opacity: 1; }
    }
    @keyframes pulse {
      0% { transform: scale(1); }
      50% { transform: scale(1.05); }
      100% { transform: scale(1); }
    }
    @keyframes rotate {
      0% { transform: rotate(0deg); }
      100% { transform: rotate(360deg); }
    }
    @keyframes bounce {
      0%, 100% { transform: translateY(0); }
      50% { transform: translateY(-10px); }
    }
    .draw-line {
      stroke-dasharray: 1000;
      stroke-dashoffset: 1000;
      animation: drawLine 3s forwards;
    }
    .fade-in {
      opacity: 0;
      animation: fadeIn 1s forwards;
      animation-delay: 0.5s;
    }
    .pulse {
      animation: pulse 2s infinite ease-in-out;
    }
    .rotate {
      animation: rotate 10s linear infinite;
      transform-origin: center;
    }
    .bounce {
      animation: bounce 2s infinite ease-in-out;
    }
    .step-text {
      font-family: Arial, sans-serif;
      font-size: 14px;
      font-weight: bold;
    }
    .description-text {
      font-family: Arial, sans-serif;
      font-size: 12px;
      fill: #444;
    }
    .title-text {
      font-family: Arial, sans-serif;
      font-size: 24px;
      font-weight: bold;
      fill: #333;
    }
  </style>

  <!-- Background -->
  <defs>
    <linearGradient id="bg-gradient" x1="0%" y1="0%" x2="100%" y2="100%">
      <stop offset="0%" stop-color="#f5f7fa" />
      <stop offset="100%" stop-color="#e2e7ed" />
    </linearGradient>
    <filter id="shadow" x="-20%" y="-20%" width="140%" height="140%">
      <feDropShadow dx="2" dy="2" stdDeviation="3" flood-color="#00000033" />
    </filter>
  </defs>
  <rect width="800" height="500" rx="10" ry="10" fill="url(#bg-gradient)"/>
  
  <!-- Title -->
  <text x="400" y="40" text-anchor="middle" class="title-text">Drawing Analysis Process</text>
  
  <!-- Process Flow -->
  <g transform="translate(30, 80)">
    <!-- Step 1: Original Shape -->
    <g class="fade-in">
      <rect x="10" y="10" width="120" height="100" rx="10" ry="10" fill="#FAF3DD" stroke="#FFD166" stroke-width="2" filter="url(#shadow)"/>
      <!-- Triangle Shape -->
      <path d="M60 30 L90 80 L30 80 Z" fill="none" stroke="#06D6A0" stroke-width="3" class="pulse"/>
      <text x="70" y="110" text-anchor="middle" class="step-text" fill="#444">Original Shape</text>
      <text x="70" y="130" text-anchor="middle" class="description-text">System presents shape</text>
    </g>
    
    <!-- Arrow 1 -->
    <path d="M140 60 L190 60" stroke="#999" stroke-width="2" marker-end="url(#arrowhead)" class="draw-line"/>
    
    <!-- Step 2: Drawing Process -->
    <g class="fade-in" style="animation-delay: 0.7s">
      <rect x="200" y="10" width="120" height="100" rx="10" ry="10" fill="#D8F1FC" stroke="#118AB2" stroke-width="2" filter="url(#shadow)"/>
      
      <!-- Hand drawing illustration -->
      <path d="M250 30 C270 25, 280 40, 270 55 C290 40, 290 70, 270 75" fill="none" stroke="#444" stroke-width="2" class="draw-line" style="animation-delay: 1s"/>
      
      <!-- Trace shape -->
      <path d="M250 40 L280 80 L220 80 Z" fill="none" stroke="#EF476F" stroke-width="2" stroke-dasharray="3,3"/>
      
      <text x="260" y="110" text-anchor="middle" class="step-text" fill="#444">User Drawing</text>
      <text x="260" y="130" text-anchor="middle" class="description-text">User traces the shape</text>
    </g>
    
    <!-- Arrow 2 -->
    <path d="M330 60 L380 60" stroke="#999" stroke-width="2" marker-end="url(#arrowhead)" class="draw-line" style="animation-delay: 1.2s"/>
    
    <!-- Step 3: Analysis -->
    <g class="fade-in" style="animation-delay: 1.4s">
      <rect x="390" y="10" width="120" height="100" rx="10" ry="10" fill="#EAEEFF" stroke="#073B4C" stroke-width="2" filter="url(#shadow)"/>
      
      <!-- Analysis gears -->
      <g class="rotate" transform="translate(450, 50)">
        <path d="M0 -25 L5 -10 L15 -15 L10 0 L15 15 L5 10 L0 25 L-5 10 L-15 15 L-10 0 L-15 -15 L-5 -10 Z" fill="#073B4C" fill-opacity="0.7"/>
      </g>
      <g class="rotate" transform="translate(425, 60)" style="animation-direction: reverse">
        <path d="M0 -15 L3 -6 L10 -9 L6 0 L10 9 L3 6 L0 15 L-3 6 L-10 9 L-6 0 L-10 -9 L-3 -6 Z" fill="#073B4C" fill-opacity="0.5"/>
      </g>
      
      <text x="450" y="110" text-anchor="middle" class="step-text" fill="#444">Analysis</text>
      <text x="450" y="130" text-anchor="middle" class="description-text">AI analyzes drawing</text>
    </g>
    
    <!-- Arrow 3 -->
    <path d="M520 60 L570 60" stroke="#999" stroke-width="2" marker-end="url(#arrowhead)" class="draw-line" style="animation-delay: 1.8s"/>
    
    <!-- Step 4: Results -->
    <g class="fade-in" style="animation-delay: 2s">
      <rect x="580" y="10" width="120" height="100" rx="10" ry="10" fill="#E3F6F5" stroke="#06D6A0" stroke-width="2" filter="url(#shadow)"/>
      
      <!-- Results chart illustration -->
      <rect x="600" y="40" width="15" height="40" fill="#EF476F" rx="2" ry="2" class="bounce"/>
      <rect x="620" y="50" width="15" height="30" fill="#FFD166" rx="2" ry="2" class="bounce" style="animation-delay: 0.2s"/>
      <rect x="640" y="30" width="15" height="50" fill="#118AB2" rx="2" ry="2" class="bounce" style="animation-delay: 0.4s"/>
      <line x1="600" y1="80" x2="655" y2="80" stroke="#444" stroke-width="1"/>
      
      <text x="640" y="110" text-anchor="middle" class="step-text" fill="#444">Results</text>
      <text x="640" y="130" text-anchor="middle" class="description-text">Psychological assessment</text>
    </g>
  </g>
  
  <!-- Detailed Analysis Factors -->
  <g transform="translate(30, 230)" class="fade-in" style="animation-delay: 2.2s">
    <rect x="10" y="10" width="700" height="170" rx="10" ry="10" fill="#FFF" stroke="#073B4C" stroke-width="1" stroke-dasharray="5,3" filter="url(#shadow)"/>
    <text x="20" y="30" class="step-text" fill="#073B4C">Analysis Factors:</text>
    
    <!-- Response Time -->
    <g transform="translate(40, 50)">
      <circle cx="10" cy="10" r="5" fill="#EF476F"/>
      <text x="25" y="15" class="description-text">Response Time</text>
      <text x="25" y="35" class="description-text" fill="#666">- Fast response: Impulsive, confident</text>
      <text x="25" y="55" class="description-text" fill="#666">- Slow response: Careful, analytical, hesitant</text>
    </g>
    
    <!-- Shape Accuracy -->
    <g transform="translate(260, 50)">
      <circle cx="10" cy="10" r="5" fill="#FFD166"/>
      <text x="25" y="15" class="description-text">Shape Accuracy</text>
      <text x="25" y="35" class="description-text" fill="#666">- High accuracy: Attention to detail, focus</text>
      <text x="25" y="55" class="description-text" fill="#666">- Low accuracy: Creative, less conventional</text>
    </g>
    
    <!-- Drawing Style -->
    <g transform="translate(490, 50)">
      <circle cx="10" cy="10" r="5" fill="#118AB2"/>
      <text x="25" y="15" class="description-text">Drawing Style</text>
      <text x="25" y="35" class="description-text" fill="#666">- Bold lines: Confidence, assertiveness</text>
      <text x="25" y="55" class="description-text" fill="#666">- Light strokes: Sensitivity, caution</text>
    </g>
    
    <!-- Color Selection -->
    <g transform="translate(40, 120)">
      <circle cx="10" cy="10" r="5" fill="#06D6A0"/>
      <text x="25" y="15" class="description-text">Color Selection</text>
      <text x="25" y="35" class="description-text" fill="#666">- Warm colors: Energy, passion, optimism</text>
      <text x="25" y="55" class="description-text" fill="#666">- Cool colors: Calm, introspection, restraint</text>
    </g>
    
    <!-- Behavioral Analysis -->
    <g transform="translate(270, 120)">
      <circle cx="10" cy="10" r="5" fill="#073B4C"/>
      <text x="25" y="15" class="description-text">Behavioral Analysis</text>
      <text x="25" y="35" class="description-text" fill="#666">- Frequent corrections: Perfectionism, anxiety</text>
      <text x="25" y="55" class="description-text" fill="#666">- Single attempt: Confidence, decisiveness</text>
    </g>
  </g>
  
  <!-- Feedback Section -->
  <g transform="translate(30, 420)" class="fade-in" style="animation-delay: 2.5s">
    <rect x="10" y="0" width="700" height="50" rx="10" ry="10" fill="#FFF6EB" stroke="#FFD166" stroke-width="2" filter="url(#shadow)" class="pulse"/>
    <text x="20" y="30" class="step-text" fill="#073B4C">Personalized Feedback: </text>
    <text x="180" y="30" class="description-text">"Your drawing reveals a thoughtful and analytical approach. Focus on balancing perfectionism with self-compassion."</text>
  </g>
  
  <!-- Arrowhead Marker -->
  <defs>
    <marker id="arrowhead" markerWidth="10" markerHeight="7" refX="9" refY="3.5" orient="auto">
      <polygon points="0 0, 10 3.5, 0 7" fill="#999"/>
    </marker>
  </defs>
</svg>