<?xml version="1.0" encoding="UTF-8"?>
<svg width="800" height="600" viewBox="0 0 800 600" xmlns="http://www.w3.org/2000/svg">
  <style>
    @keyframes pulse {
      0% { opacity: 0.7; }
      50% { opacity: 1; }
      100% { opacity: 0.7; }
    }
    @keyframes float {
      0% { transform: translateY(0px); }
      50% { transform: translateY(-10px); }
      100% { transform: translateY(0px); }
    }
    @keyframes rotate {
      from { transform: rotate(0deg); }
      to { transform: rotate(360deg); }
    }
    @keyframes dash {
      to {
        stroke-dashoffset: 0;
      }
    }
    .float {
      animation: float 3s ease-in-out infinite;
    }
    .pulse {
      animation: pulse 2s infinite;
    }
    .rotate {
      animation: rotate 10s linear infinite;
      transform-origin: center;
    }
    .flow-line {
      stroke-dasharray: 15;
      stroke-dashoffset: 15;
      animation: dash 1s linear infinite;
    }
    .app-title {
      font-family: Arial, sans-serif;
      font-size: 24px;
      font-weight: bold;
    }
    .section-title {
      font-family: Arial, sans-serif;
      font-size: 18px;
      font-weight: bold;
    }
    .component {
      font-family: Arial, sans-serif;
      font-size: 14px;
      font-weight: normal;
    }
  </style>

  <!-- Background -->
  <defs>
    <linearGradient id="bg-gradient" x1="0%" y1="0%" x2="100%" y2="100%">
      <stop offset="0%" stop-color="#f9f9f9" />
      <stop offset="100%" stop-color="#e6e6e6" />
    </linearGradient>
  </defs>
  <rect width="800" height="600" fill="url(#bg-gradient)" rx="10" ry="10" />

  <!-- Title -->
  <text x="400" y="50" text-anchor="middle" class="app-title" fill="#333333">AI-PsychDoodle-Analyzer System Architecture</text>

  <!-- User Interface Layer -->
  <g class="float" transform="translate(0,0)">
    <rect x="100" y="100" width="600" height="100" rx="20" ry="20" fill="#6495ED" fill-opacity="0.8" stroke="#4169E1" stroke-width="2" />
    <text x="400" y="130" text-anchor="middle" class="section-title" fill="white">User Interface Layer</text>
    
    <!-- Components -->
    <g>
      <rect x="130" y="150" width="150" height="30" rx="5" ry="5" fill="white" stroke="#4169E1" stroke-width="1" />
      <text x="205" y="170" text-anchor="middle" class="component" fill="#333">Drawing Canvas</text>
    </g>
    <g>
      <rect x="325" y="150" width="150" height="30" rx="5" ry="5" fill="white" stroke="#4169E1" stroke-width="1" />
      <text x="400" y="170" text-anchor="middle" class="component" fill="#333">Drawing Guide</text>
    </g>
    <g>
      <rect x="520" y="150" width="150" height="30" rx="5" ry="5" fill="white" stroke="#4169E1" stroke-width="1" />
      <text x="595" y="170" text-anchor="middle" class="component" fill="#333">Feedback Display</text>
    </g>
  </g>

  <!-- Analysis Layer -->
  <g transform="translate(0,20)">
    <rect x="100" y="240" width="600" height="160" rx="20" ry="20" fill="#FF8C00" fill-opacity="0.8" stroke="#FF6347" stroke-width="2" />
    <text x="400" y="270" text-anchor="middle" class="section-title" fill="white">Analysis Layer</text>
    
    <!-- Components -->
    <g class="float" transform="translate(0,0)">
      <rect x="130" y="290" width="250" height="90" rx="10" ry="10" fill="white" stroke="#FF6347" stroke-width="1" />
      <text x="255" y="315" text-anchor="middle" class="component" fill="#333" font-weight="bold">Shape Analysis Module</text>
      <text x="255" y="340" text-anchor="middle" class="component" fill="#333">- Response Time Analysis</text>
      <text x="255" y="360" text-anchor="middle" class="component" fill="#333">- Shape Overlap Detection</text>
    </g>
    
    <g class="float" transform="translate(0,10)">
      <rect x="420" y="290" width="250" height="90" rx="10" ry="10" fill="white" stroke="#FF6347" stroke-width="1" />
      <text x="545" y="315" text-anchor="middle" class="component" fill="#333" font-weight="bold">GauGAN Integration</text>
      <text x="545" y="340" text-anchor="middle" class="component" fill="#333">- Doodle to Image Conversion</text>
      <text x="545" y="360" text-anchor="middle" class="component" fill="#333">- Image Feature Extraction</text>
    </g>
  </g>

  <!-- AI Layer -->
  <g transform="translate(0,20)">
    <rect x="100" y="440" width="600" height="100" rx="20" ry="20" fill="#9370DB" fill-opacity="0.8" stroke="#7B68EE" stroke-width="2" />
    <text x="400" y="470" text-anchor="middle" class="section-title" fill="white">AI Inference Layer</text>
    
    <!-- Components -->
    <g>
      <rect x="130" y="490" width="150" height="30" rx="5" ry="5" fill="white" stroke="#7B68EE" stroke-width="1" />
      <text x="205" y="510" text-anchor="middle" class="component" fill="#333">Emotional Scoring</text>
    </g>
    <g>
      <rect x="325" y="490" width="150" height="30" rx="5" ry="5" fill="white" stroke="#7B68EE" stroke-width="1" />
      <text x="400" y="510" text-anchor="middle" class="component" fill="#333">Psychological Analysis</text>
    </g>
    <g>
      <rect x="520" y="490" width="150" height="30" rx="5" ry="5" fill="white" stroke="#7B68EE" stroke-width="1" />
      <text x="595" y="510" text-anchor="middle" class="component" fill="#333">Feedback Generation</text>
    </g>
  </g>

  <!-- Data Flow Animations -->
  <g>
    <!-- User to Analysis Layer -->
    <path d="M400 200 L400 240" stroke="#4169E1" stroke-width="3" stroke-linecap="round" class="flow-line" />
    
    <!-- Between Analysis Components -->
    <path d="M380 335 L420 335" stroke="#FF6347" stroke-width="3" stroke-linecap="round" class="flow-line" />
    
    <!-- Analysis to AI Layer -->
    <path d="M400 400 L400 440" stroke="#FF6347" stroke-width="3" stroke-linecap="round" class="flow-line" />
  </g>

  <!-- Animated Brain Icon -->
  <g class="rotate" transform="translate(400, 400) scale(0.15)">
    <circle cx="0" cy="0" r="120" fill="#9370DB" fill-opacity="0.3" />
    <path d="M-90,0 C-90,-50 -50,-90 0,-90 C50,-90 90,-50 90,0 C90,50 50,90 0,90 C-50,90 -90,50 -90,0 Z" fill="none" stroke="#7B68EE" stroke-width="15" />
    <path d="M-60,-60 C-60,-80 -40,-100 0,-100 C40,-100 60,-80 60,-60 C60,-40 40,-20 0,-20 C-40,-20 -60,-40 -60,-60 Z" fill="none" stroke="#7B68EE" stroke-width="15" />
    <path d="M-60,60 C-60,40 -40,20 0,20 C40,20 60,40 60,60 C60,80 40,100 0,100 C-40,100 -60,80 -60,60 Z" fill="none" stroke="#7B68EE" stroke-width="15" />
    <circle cx="-30" cy="-40" r="15" fill="#7B68EE" class="pulse" />
    <circle cx="30" cy="-40" r="15" fill="#7B68EE" class="pulse" />
    <circle cx="0" cy="50" r="15" fill="#7B68EE" class="pulse" />
  </g>

  <!-- Mobile Device Icon -->
  <g class="float" transform="translate(50, 150)">
    <rect x="0" y="0" width="30" height="50" rx="5" ry="5" fill="#6495ED" stroke="#4169E1" stroke-width="2" />
    <rect x="5" y="5" width="20" height="30" rx="2" ry="2" fill="white" />
    <circle cx="15" cy="42" r="3" fill="white" />
  </g>

  <!-- Server Icon -->
  <g class="float" transform="translate(720, 400)">
    <rect x="0" y="0" width="30" height="40" rx="2" ry="2" fill="#9370DB" stroke="#7B68EE" stroke-width="2" />
    <line x1="0" y1="10" x2="30" y2="10" stroke="#7B68EE" stroke-width="1" />
    <line x1="0" y1="20" x2="30" y2="20" stroke="#7B68EE" stroke-width="1" />
    <line x1="0" y1="30" x2="30" y2="30" stroke="#7B68EE" stroke-width="1" />
    <circle cx="25" cy="5" r="2" fill="#FF6347" class="pulse" />
  </g>
</svg>